<?xml version="1.0" encoding="UTF-8" standalone="no"?>
<!-- Created with Inkscape (http://www.inkscape.org/) -->

<svg
   xmlns:dc="http://purl.org/dc/elements/1.1/"
   xmlns:cc="http://creativecommons.org/ns#"
   xmlns:rdf="http://www.w3.org/1999/02/22-rdf-syntax-ns#"
   xmlns:svg="http://www.w3.org/2000/svg"
   xmlns="http://www.w3.org/2000/svg"
   xmlns:sodipodi="http://sodipodi.sourceforge.net/DTD/sodipodi-0.dtd"
   xmlns:inkscape="http://www.inkscape.org/namespaces/inkscape"
   id="svg2"
   version="1.1"
   inkscape:version="0.48.5 r10040"
   width="376"
   height="400"
   sodipodi:docname="SixNimmtIcon.png">
  <metadata
     id="metadata8">
    <rdf:RDF>
      <cc:Work
         rdf:about="">
        <dc:format>image/svg+xml</dc:format>
        <dc:type
           rdf:resource="http://purl.org/dc/dcmitype/StillImage" />
        <dc:title></dc:title>
      </cc:Work>
    </rdf:RDF>
  </metadata>
  <defs
     id="defs6" />
  <sodipodi:namedview
     pagecolor="#ffffff"
     bordercolor="#666666"
     borderopacity="1"
     objecttolerance="10"
     gridtolerance="10"
     guidetolerance="10"
     inkscape:pageopacity="0"
     inkscape:pageshadow="2"
     inkscape:window-width="1920"
     inkscape:window-height="1017"
     id="namedview4"
     showgrid="false"
     inkscape:zoom="1.925"
     inkscape:cx="106.96104"
     inkscape:cy="200"
     inkscape:window-x="1912"
     inkscape:window-y="-8"
     inkscape:window-maximized="1"
     inkscape:current-layer="svg2" />
  <path
     style="fill:#3f59a6;fill-opacity:1;stroke:none;stroke-width:1px;stroke-linecap:butt;stroke-linejoin:miter;stroke-opacity:1"
     d="M 63.8961,34.805194 C 33.61704,81.8961 3.5247496,129.08817 5.7142896,193.76624 33.71658,192.15814 61.57071,190.40188 90.909091,190.12987 l -6.753251,35.32468 39.48053,29.09091 8.31169,28.57143 -30.64936,30.64935 c 7.67135,19.28547 13.30454,38.29919 41.03897,60.25974 l 24.41558,-8.83117 11.94805,33.24675 c 37.87985,-0.7391 59.94704,-8.06679 81.55844,-15.58441 l -7.7922,-38.44156 32.72727,4.15584 c 17.12739,-34.67171 21.72855,-54.72948 22.33766,-70.12987 l -51.42857,-16.62338 3.11688,-26.4935 34.28572,-27.01299 c -6.02289,-17.39145 -12.4253,-34.02385 -17.14286,-54.02597 34.82708,-10.67949 67.40046,-9.33925 105.97403,-40 -10.18425,-39.021129 -34.08055,-77.681412 -96.62338,-115.324681 14.3969,29.84537 26.59886,59.324918 32.72727,87.792207 -17.79118,11.511151 -34.84534,24.035704 -63.37662,20.779224 L 266.49351,86.753246 268.05195,30.12987 213.5065,72.207792 210.9091,104.93507 175.58442,94.025974 155.32468,113.76624 c -5.36797,-5.25367 -10.73593,-19.445032 -16.1039,-29.610396 -10.1981,-2.460609 -33.97516,-14.620478 -52.98701,-23.376624 4.510251,20.553734 4.711445,38.234757 5.194802,56.1039 17.862628,8.16356 20.274288,14.39576 28.051948,21.2987 -30.18187,9.83558 -55.5182,12.13364 -73.24675,2.5974 C 45.78013,107.26628 54.89656,71.019041 63.8961,34.805194 z"
     id="path2987"
     inkscape:connector-curvature="0"
     sodipodi:nodetypes="cccccccccccccccccccccccccccccccccc"
     inkscape:export-filename="D:\Dan\Desktop\path2987.png"
     inkscape:export-xdpi="10.363459"
     inkscape:export-ydpi="10.363459" />
</svg>
